<svg viewBox="0 0 640 407" fill="none" xmlns="http://www.w3.org/2000/svg">
<rect x="136.5" y="126.5" width="366" height="118" stroke="white" stroke-width="3"/>
<rect x="1.5" y="1.5" width="637" height="404" rx="15.5" stroke="white" stroke-width="3"/>
<circle cx="18" cy="18" r="11.5" stroke="white" stroke-width="3"/>
<circle cx="18" cy="389" r="11.5" stroke="white" stroke-width="3"/>
<circle cx="229" cy="372" r="11.5" stroke="white" stroke-width="3"/>
<circle cx="411" cy="372" r="11.5" stroke="white" stroke-width="3"/>
<circle cx="320" cy="337" r="11.5" stroke="white" stroke-width="3"/>
<circle cx="622" cy="18" r="11.5" stroke="white" stroke-width="3"/>
<circle cx="622" cy="389" r="11.5" stroke="white" stroke-width="3"/>
<rect x="37.5" y="32.5" width="564" height="61" stroke="white" stroke-width="3"/>
<rect x="149.5" y="144.5" width="79" height="81" stroke="white" stroke-width="3"/>
<rect x="410.5" y="144.5" width="79" height="81" stroke="white" stroke-width="3"/>
<rect x="243.5" y="133.5" width="152" height="101" stroke="white" stroke-width="3"/>
<path d="M36 108.5V109M36 109V348.5H98L109 301.5H315H521L534 350.5H602L603 109H36Z" stroke="white" stroke-width="3"/>
<path class="tapeCircle" id="tapeC" d="M218.703 200.507L212.512 196.913L211.006 199.508L217.194 203.1C215.894 205.122 214.381 206.995 212.688 208.688C206.954 214.423 199.154 218.086 190.5 218.467V211.995H187.5V218.467C178.846 218.086 171.046 214.423 165.312 208.688C163.552 206.928 161.987 204.974 160.653 202.86L166.115 199.751L164.631 197.144L159.166 200.255C156.823 195.681 155.5 190.497 155.5 185C155.5 179.458 156.845 174.233 159.225 169.631L165.117 173.015L166.611 170.413L160.722 167.031C162.041 164.959 163.582 163.042 165.312 161.312C171.046 155.577 178.846 151.914 187.5 151.533V159.005H190.5V151.533C199.154 151.914 206.954 155.577 212.688 161.312C214.351 162.975 215.84 164.812 217.125 166.792L210.522 170.659L212.038 173.247L218.643 169.38C221.106 174.042 222.5 179.356 222.5 185C222.5 190.598 221.128 195.872 218.703 200.507Z" stroke="white" stroke-width="3">

<animateTransform attributeType="xml" attributeName="transform" type="rotate" from="360 8.4 9.5" to="0 8.4 9.5" dur="0.5s" additive="sum" repeatCount="indefinite" />

</path>
<path class="tapeCircle" d="M135.224 351.211L135.221 351.209L131.407 349.019C132.277 347.709 133.275 346.491 134.383 345.383C138.307 341.459 143.608 338.918 149.5 338.547V343.432V359.453L135.224 351.211ZM152.5 343.432V338.547C158.392 338.918 163.693 341.459 167.617 345.383C168.678 346.444 169.638 347.606 170.482 348.854L166.165 351.382L166.157 351.386L152.5 359.268V343.432ZM167.673 353.975L172 351.441C173.599 354.614 174.5 358.2 174.5 362C174.5 365.768 173.614 369.325 172.041 372.479L168.009 370.139L168.006 370.137L153.84 361.958L167.664 353.98L167.664 353.98L167.673 353.975ZM166.506 372.735L170.532 375.072C169.677 376.347 168.699 377.535 167.617 378.617C163.693 382.541 158.392 385.082 152.5 385.453V381.282V364.649L166.503 372.733L166.506 372.735ZM149.5 381.282V385.453C143.608 385.082 138.307 382.541 134.383 378.617C133.254 377.488 132.239 376.244 131.358 374.906L134.866 372.909L134.873 372.905L149.5 364.463V381.282ZM129.871 372.3C128.353 369.191 127.5 365.697 127.5 362C127.5 358.271 128.367 354.748 129.911 351.619L133.724 353.809L133.727 353.811L147.839 361.958L133.382 370.302L133.374 370.306L129.871 372.3Z" stroke="white" stroke-width="3"/>
<path class="tapeCircle" d="M473.224 351.211L473.221 351.209L469.407 349.019C470.277 347.709 471.275 346.491 472.383 345.383C476.307 341.459 481.608 338.918 487.5 338.547V343.432V359.453L473.224 351.211ZM490.5 343.432V338.547C496.392 338.918 501.693 341.459 505.617 345.383C506.678 346.444 507.638 347.606 508.482 348.854L504.165 351.382L504.157 351.386L490.5 359.268V343.432ZM505.673 353.975L510 351.441C511.599 354.614 512.5 358.2 512.5 362C512.5 365.768 511.614 369.325 510.041 372.479L506.009 370.139L506.006 370.137L491.84 361.958L505.664 353.98L505.664 353.98L505.673 353.975ZM504.506 372.735L508.532 375.072C507.677 376.347 506.699 377.535 505.617 378.617C501.693 382.541 496.392 385.082 490.5 385.453V381.282V364.649L504.503 372.733L504.506 372.735ZM487.5 381.282V385.453C481.608 385.082 476.307 382.541 472.383 378.617C471.254 377.488 470.239 376.244 469.358 374.906L472.866 372.909L472.873 372.905L487.5 364.463V381.282ZM467.871 372.3C466.353 369.191 465.5 365.697 465.5 362C465.5 358.271 466.367 354.748 467.911 351.619L471.724 353.809L471.727 353.811L485.839 361.958L471.382 370.302L471.374 370.306L467.871 372.3Z" stroke="white" stroke-width="3"/>
<path class="tapeCircle" d="M479.703 200.507L473.512 196.913L472.006 199.508L478.194 203.1C476.894 205.122 475.381 206.995 473.688 208.688C467.954 214.423 460.154 218.086 451.5 218.467V211.995H448.5V218.467C439.846 218.086 432.046 214.423 426.312 208.688C424.552 206.928 422.987 204.974 421.653 202.86L427.115 199.751L425.631 197.144L420.166 200.255C417.823 195.681 416.5 190.497 416.5 185C416.5 179.458 417.845 174.233 420.225 169.631L426.117 173.015L427.611 170.413L421.722 167.031C423.041 164.959 424.582 163.042 426.312 161.312C432.046 155.577 439.846 151.914 448.5 151.533V159.005H451.5V151.533C460.154 151.914 467.954 155.577 473.688 161.312C475.351 162.975 476.84 164.812 478.125 166.792L471.522 170.659L473.038 173.247L479.643 169.38C482.106 174.042 483.5 179.356 483.5 185C483.5 190.598 482.128 195.872 479.703 200.507Z" stroke="white" stroke-width="3"/>



</svg>
